<?xml version="1.0" encoding="utf-8"?>
<!-- Generator: Adobe Illustrator 21.0.2, SVG Export Plug-In . SVG Version: 6.00 Build 0)  -->
<svg version="1.1" id="Layer_1" xmlns="https://www.w3.org/2000/svg" xmlns:xlink="https://www.w3.org/1999/xlink" x="0px" y="0px"
	 viewBox="0 0 200 200" style="enable-background:new 0 0 200 200;" xml:space="preserve">
<style type="text/css">
	.st0{fill:#1A1A1A;}
</style>
<g>
	<path class="st0" d="M197.8,84.6c-0.5-0.8-1.8-0.6-1.8-0.6H3.9c0,0-1.3-0.1-1.8,0.6c-0.3,0.4-0.3,1.2,0.4,2.5
		c1.9,3.5,44.3,62.8,44.3,62.8s2.8,4.6,10.1,4.4c2.2,0,83.9,0,86.1,0c7.4-0.1,10.1-4.4,10.1-4.4s42.4-59.3,44.3-62.8
		C198.1,85.9,198.1,85.1,197.8,84.6z"/>
	<path class="st0" d="M23,56.4v22.2h7.6V56.4c0-3.6,3-6.6,6.6-6.6c3.6,0,6.6,3,6.6,6.6h0c0.1,0.7,1.7,1.2,3.8,1.2
		c2.1,0,3.7-0.5,3.8-1.2h0c0,0,0,0,0,0c0,0,0,0,0,0l0,0c0-7.8-6.4-14.2-14.2-14.2c-7.6,0-13.7,6-14.1,13.4H23V56.4
		C23,56.3,23,56.4,23,56.4L23,56.4z"/>
	<path class="st0" d="M73.2,159H56.8v5.8h0.1c0.2,1.5,3.7,2.6,8.1,2.6c4.4,0,8-1.2,8.1-2.6h0.1v-0.1l0,0l0,0V159z"/>
	<path class="st0" d="M126.9,164.7L126.9,164.7c0.2,1.5,3.8,2.6,8.2,2.6c4.4,0,8-1.2,8.1-2.6h0.1V159h-16.4V164.7z"/>
</g>
</svg>
