<?xml version="1.0" encoding="utf-8"?>
<!-- Generator: Adobe Illustrator 21.0.2, SVG Export Plug-In . SVG Version: 6.00 Build 0)  -->
<svg version="1.1" xmlns="https://www.w3.org/2000/svg" xmlns:xlink="https://www.w3.org/1999/xlink" x="0px" y="0px"
	 viewBox="0 0 465 104" style="enable-background:new 0 0 465 104;" xml:space="preserve">
<style type="text/css">
	.st0{fill:#C1C1C1;}
	.st1{fill:#FFFFFF;}
	.st2{fill:none;stroke:#1A1A1A;stroke-miterlimit:10;}
	.st3{fill:#1A1A1A;}
	.st4{opacity:0.58;fill:#1A1A1A;}
	.st5{fill:#35CAFC;}
	.st6{fill:#35CAFC;stroke:#1A1A1A;stroke-miterlimit:10;}
	.st7{fill:none;stroke:#000000;stroke-width:0.75;stroke-miterlimit:10;}
	.st8{fill:url(#SVGID_81_);}
	.st9{fill:url(#SVGID_82_);}
	.st10{fill:url(#SVGID_83_);}
	.st11{fill:url(#SVGID_84_);}
	.st12{fill:url(#SVGID_85_);}
	.st13{fill:url(#SVGID_86_);}
	.st14{fill:url(#SVGID_87_);}
	.st15{fill:url(#SVGID_88_);}
	.st16{fill:url(#SVGID_89_);}
	.st17{fill:url(#SVGID_90_);}
	.st18{fill:#F5F0A1;}
	.st19{fill:#FFAFBB;}
	.st20{fill:#FFFFFF;stroke:#1A1A1A;stroke-width:2;stroke-miterlimit:10;}
	.st21{fill:none;stroke:#000000;stroke-width:4;stroke-miterlimit:10;}
	.st22{fill:#FFFFFF;stroke:#1A1A1A;stroke-miterlimit:10;}
	.st23{fill:#0000FF;}
	.st24{fill:#FF00FF;}
	.st25{fill:#00FF00;}
	.st26{opacity:0.92;fill:#35CAFC;}
	.st27{fill:none;stroke:#1A1A1A;stroke-width:0.5;stroke-miterlimit:10;}
	.st28{fill:none;}
	.st29{fill:none;stroke:#FFFFFF;stroke-width:0.75;stroke-miterlimit:10;}
	.st30{fill:none;stroke:#FF0000;stroke-width:0.75;stroke-miterlimit:10;}
	.st31{fill:#FF0000;}
	.st32{fill:none;stroke:#FF0000;stroke-miterlimit:10;}
</style>
<g id="Layer_2">
</g>
<g id="Layer_1">
</g>
<g id="Layer_3">
	<g>
		<path class="st1" d="M7,41.5V7.4H0.8V1.7h17.6c4.9,0,8.6,0.2,11.2,0.8s5.2,1.6,7.6,3.4s4.4,4.2,5.9,7.3c1.5,3.1,2.2,6.6,2.2,10.5
			c0,4.5-0.7,8.4-2.1,11.7s-3.3,5.8-5.6,7.4s-5,2.8-8.2,3.4s-7.2,1-12.1,1H0.8v-5.7H7z M13.9,41.5h3.6c4,0,7.2-0.2,9.5-0.8
			c2.3-0.5,4.3-1.4,5.9-2.6c1.6-1.2,2.9-3,3.9-5.5c1-2.4,1.5-5.3,1.5-8.6c0-3.9-0.8-7.3-2.5-10c-1.6-2.7-3.7-4.5-6.3-5.4
			C27,7.8,23.1,7.4,17.8,7.4h-3.9V41.5z"/>
		<path class="st1" d="M90.6,28.7l5.9,3.3c-1.3,5.1-4,9-8.1,11.8c-4,2.8-8.7,4.2-13.9,4.2c-6.9,0-12.4-2.2-16.6-6.7
			c-4.2-4.5-6.2-10-6.2-16.6c0-7.2,2.1-13,6.3-17.2C62.1,3.2,67.6,1,74.3,1c6,0,11,1.6,15,4.9V1.7h5.9v14.6h-5.9
			c-1.3-3-3.3-5.3-6-6.9C80.5,7.8,77.7,7,74.7,7c-4.5,0-8.3,1.6-11.2,4.9s-4.4,7.4-4.4,12.4c0,5.1,1.6,9.3,4.7,12.6
			s6.8,4.9,11.1,4.9c3.5,0,6.7-1.1,9.6-3.4C87.4,36.1,89.4,32.9,90.6,28.7z"/>
		<path class="st1" d="M105.4,9.8v-8h8v7c0,2.4-0.2,4.2-0.6,5.6c-0.4,1.3-1.2,2.4-2.4,3.2c-1.2,0.8-2.9,1.3-5.1,1.4v-3.4
			c2.6-0.4,3.9-2,3.9-4.8c0-0.2,0-0.4,0-0.8H105.4z"/>
		<path class="st1" d="M121.6,47.2V30.7h5.7v4c2.7,4.9,6.3,7.4,10.7,7.4c2.2,0,4.1-0.7,5.7-2.1s2.3-3.2,2.3-5.4
			c0-2.2-0.6-3.7-1.9-4.7c-1.3-0.9-3.7-1.9-7.2-2.8c-4.1-1.1-7.1-2.1-9.1-3.1c-2-1-3.5-2.4-4.7-4.2c-1.2-1.8-1.7-3.9-1.7-6.4
			c0-3.8,1.3-6.9,3.8-9.1c2.5-2.3,5.7-3.4,9.6-3.4c3.6,0,7,1.2,10.1,3.5v-3h5.6v13.8h-5.6v-3.2c-2.3-3.5-5.5-5.3-9.6-5.3
			c-2.5,0-4.4,0.6-5.7,1.7c-1.3,1.1-2,2.5-2,4.1c0,1.2,0.3,2.3,1,3.2c0.7,0.9,1.5,1.6,2.6,2c1,0.4,3.1,1,6.2,1.8c4,1,6.9,2,8.7,2.9
			s3.4,2.4,4.7,4.5s2,4.5,2,7.3c0,3.9-1.4,7.1-4.1,9.6c-2.7,2.5-6.1,3.8-10.2,3.8c-4.1,0-7.9-1.5-11.2-4.5v3.8H121.6z"/>
		<path class="st1" d="M3.3,79.7c0-6.6,2.2-12.1,6.5-16.6c4.3-4.4,9.9-6.7,16.9-6.7c7,0,12.7,2.2,17.1,6.7c4.4,4.4,6.6,10,6.6,16.7
			c0,6.8-2.2,12.5-6.7,16.9c-4.5,4.4-10.2,6.7-17.1,6.7c-4.4,0-8.5-1.1-12.1-3.2c-3.7-2.1-6.5-5-8.3-8.8C4.2,87.7,3.3,83.8,3.3,79.7
			z M10.8,79.8c0,5,1.5,9.2,4.4,12.6s6.8,5.1,11.5,5.1c4.7,0,8.6-1.7,11.6-5.2c3-3.5,4.5-7.6,4.5-12.4c0-4.8-1.5-8.9-4.6-12.3
			c-3.1-3.3-7-5-11.6-5c-4.6,0-8.4,1.6-11.4,4.9C12.3,70.8,10.8,74.9,10.8,79.8z"/>
		<path class="st1" d="M58.1,97V62.9h-5.7v-5.7h16.2c4.8,0,8.3,0.3,10.7,1s4.4,2.2,6,4.6c1.6,2.4,2.4,5.2,2.4,8.5
			c0,2.6-0.5,4.9-1.6,7c-1.1,2.1-2.4,3.6-3.9,4.6c-1.6,1-3.3,1.6-5.3,2c-2,0.3-4.9,0.5-8.8,0.5h-3.1V97h5.9v5.7H52.3V97H58.1z
			 M64.9,79.8h3.9c4.5,0,7.6-0.6,9.3-1.9c1.7-1.3,2.6-3.5,2.6-6.8c0-2-0.5-3.7-1.4-5.1c-0.9-1.4-2-2.2-3.4-2.6s-3.6-0.6-6.8-0.6
			h-4.3V79.8z"/>
		<path class="st1" d="M97.1,97V62.9h-5.9v-5.7H129v13.7h-5.6v-8H104v13.5h16.9v5.7H104V97h19.4v-8.3h5.6v14H91.2V97H97.1z"/>
		<path class="st1" d="M140.7,97V62.9h-6.5v-5.7h15.5l20,35.4V62.9h-6.4v-5.7h18.7v5.7h-6.7v40.2h-7l-21.8-38.8V97h6.5v5.7h-18.6V97
			H140.7z"/>
	</g>
	<g>
		<path class="st1" d="M197.6,102.8v-3h5.8V60.4h-5.8v-3h9.2v18.1c4-3.4,8-5.1,12-5.1c1.6,0,3.1,0.3,4.4,0.9
			c1.3,0.6,2.3,1.5,3.1,2.8c0.8,1.3,1.1,2.8,1.1,4.7v21.2h5.2v3h-14.3v-3h5.6V79.4c0-4-1.9-6-5.6-6c-1.1,0-2.4,0.2-3.7,0.7
			c-1.3,0.4-2.7,1.1-4.1,1.9c-1.4,0.8-2.7,1.8-3.9,2.9v20.9h5.2v3H197.6z"/>
		<path class="st1" d="M235.7,87c0-3.1,0.7-6,2.1-8.5c1.4-2.6,3.3-4.6,5.6-6c2.4-1.4,5-2.2,8-2.2c3,0,5.7,0.7,8.1,2.2
			c2.4,1.5,4.3,3.5,5.7,6c1.4,2.6,2.1,5.4,2.1,8.5c0,3.1-0.7,5.9-2.1,8.5c-1.4,2.6-3.3,4.6-5.7,6c-2.4,1.5-5.1,2.2-8.1,2.2
			c-3,0-5.6-0.7-8-2.2c-2.4-1.5-4.3-3.5-5.6-6.1C236.4,92.9,235.7,90.1,235.7,87z M239.3,87c0,2.6,0.5,4.9,1.6,7
			c1.1,2.1,2.5,3.7,4.3,4.8c1.8,1.2,3.9,1.8,6.2,1.8c2.3,0,4.4-0.6,6.3-1.8c1.9-1.2,3.3-2.8,4.4-4.9c1.1-2.1,1.6-4.4,1.6-6.9
			c0-2.5-0.5-4.8-1.6-6.9c-1.1-2.1-2.5-3.7-4.4-4.9c-1.9-1.2-4-1.8-6.3-1.8c-1.7,0-3.3,0.3-4.8,1c-1.5,0.7-2.8,1.6-3.9,2.8
			c-1.1,1.2-2,2.7-2.6,4.4C239.6,83.3,239.3,85.1,239.3,87z"/>
		<path class="st1" d="M296.8,102.8v-4.5c-3.9,3.3-8,5-12.5,5c-2.4,0-4.3-0.7-5.8-2.1c-1.4-1.4-2.2-3.3-2.2-5.7V74.1h-5.6v-3h9v23.4
			c0,3.7,1.7,5.6,5.2,5.6c1.9,0,3.9-0.5,6-1.5c2.1-1,4-2.4,5.8-4.2V74.1h-5.6v-3h9.1v28.7h5.4v3H296.8z"/>
		<path class="st1" d="M308.8,102.8v-11h3.1c0,2.6,0.9,4.7,2.7,6.3c1.8,1.6,4.2,2.4,7.1,2.4c2.6,0,4.7-0.6,6.4-1.8
			c1.6-1.2,2.5-2.7,2.5-4.5c0-2.1-0.8-3.5-2.3-4.2c-1.6-0.7-4-1.4-7.4-2.1s-6-1.6-7.7-2.7c-1.7-1.1-2.6-3.1-2.6-5.9
			c0-1.6,0.4-3.1,1.3-4.4c0.9-1.3,2-2.3,3.5-3.1c1.5-0.7,3.2-1.1,5.1-1.1c3.8,0,6.7,1.4,8.7,4.2h0.2v-3.7h2.9v10.4h-2.9
			c-0.1-1.5-0.5-2.9-1.2-4.1s-1.8-2.2-3.1-2.8c-1.3-0.7-2.8-1-4.4-1c-2.3,0-4,0.6-5.2,1.8c-1.2,1.2-1.7,2.5-1.7,4
			c0,1.9,0.7,3.2,2.1,3.8c1.4,0.6,3.9,1.3,7.4,2c3.5,0.7,6.1,1.7,7.9,2.9c1.8,1.2,2.6,3.2,2.6,6.1c0,1.9-0.5,3.5-1.5,4.9
			c-1,1.4-2.4,2.5-4.2,3.2c-1.8,0.8-3.9,1.1-6.4,1.1c-4.4,0-7.7-1.5-9.6-4.4h-0.1v4H308.8z"/>
		<path class="st1" d="M370.9,87.7h-28.5c0,2.4,0.6,4.6,1.8,6.6c1.2,2,2.8,3.6,4.9,4.8c2,1.2,4.3,1.8,6.7,1.8c2.4,0,4.7-0.6,6.8-1.8
			c2.1-1.2,4-2.9,5.5-5.1l2.7,1.3c-1.5,2.6-3.7,4.6-6.5,6.2c-2.8,1.5-5.8,2.3-9,2.3c-2.4,0-4.6-0.4-6.6-1.2s-3.7-2-5.2-3.5
			c-1.5-1.5-2.6-3.3-3.4-5.3c-0.8-2-1.2-4.2-1.2-6.6c0-3.2,0.7-6,2.1-8.6s3.3-4.6,5.7-6s5.2-2.1,8.3-2.1c2.3,0,4.5,0.4,6.4,1.2
			c1.9,0.8,3.6,2,5,3.5c1.4,1.5,2.5,3.4,3.3,5.6C370.5,82.8,370.8,85.2,370.9,87.7z M342.5,84.7h24.8c-0.4-2.4-1.1-4.5-2.3-6.2
			c-1.1-1.7-2.5-3.1-4.3-4c-1.7-0.9-3.7-1.4-5.9-1.4c-3.2,0-6,1-8.1,3S343.1,81.1,342.5,84.7z"/>
		<path class="st1" d="M386.2,102.8v-3h5.7V60.4h-5.8v-3h9.3v42.5h5.7v3H386.2z"/>
		<path class="st1" d="M403.3,102.8v-3h5.6V74.1h-5.6v-3h9.1v28.7h5.4v3H403.3z M406.9,59.3c0-0.7,0.3-1.4,0.8-1.9
			c0.5-0.5,1.2-0.8,1.9-0.8c0.8,0,1.4,0.3,1.9,0.8c0.5,0.5,0.8,1.2,0.8,1.9c0,0.7-0.3,1.3-0.8,1.9c-0.5,0.6-1.2,0.9-1.9,0.9
			c-0.7,0-1.3-0.3-1.9-0.8C407.2,60.6,406.9,60,406.9,59.3z"/>
		<path class="st1" d="M421,102.8v-11h3.1c0,2.6,0.9,4.7,2.7,6.3c1.8,1.6,4.2,2.4,7.1,2.4c2.6,0,4.7-0.6,6.4-1.8
			c1.6-1.2,2.5-2.7,2.5-4.5c0-2.1-0.8-3.5-2.3-4.2c-1.6-0.7-4-1.4-7.4-2.1s-6-1.6-7.7-2.7c-1.7-1.1-2.6-3.1-2.6-5.9
			c0-1.6,0.4-3.1,1.3-4.4c0.9-1.3,2-2.3,3.5-3.1c1.5-0.7,3.2-1.1,5.1-1.1c3.8,0,6.7,1.4,8.7,4.2h0.2v-3.7h2.9v10.4h-2.9
			c-0.1-1.5-0.5-2.9-1.2-4.1s-1.8-2.2-3.1-2.8c-1.3-0.7-2.8-1-4.4-1c-2.3,0-4,0.6-5.2,1.8c-1.2,1.2-1.7,2.5-1.7,4
			c0,1.9,0.7,3.2,2.1,3.8c1.4,0.6,3.9,1.3,7.4,2c3.5,0.7,6.1,1.7,7.9,2.9c1.8,1.2,2.6,3.2,2.6,6.1c0,1.9-0.5,3.5-1.5,4.9
			c-1,1.4-2.4,2.5-4.2,3.2c-1.8,0.8-3.9,1.1-6.4,1.1c-4.4,0-7.7-1.5-9.6-4.4h-0.1v4H421z"/>
		<path class="st1" d="M454.3,74.1h-5.6v-3h5.6V64l3.5-2.7v9.8h6.6v3h-6.6v22.1c0,1.4,0.1,2.3,0.4,3c0.3,0.6,0.9,1,1.9,1.1
			c1,0.1,2.4-0.1,4.3-0.6v3c-2,0.6-3.8,0.8-5.3,0.7c-1.5-0.1-2.7-0.7-3.5-1.7c-0.8-1-1.2-2.4-1.2-4.1V74.1z"/>
	</g>
</g>
<g id="Layer_4">
</g>
<g id="Layer_7">
</g>
<g id="Layer_5">
</g>
<g id="Layer_6">
</g>
<g id="Layer_8">
</g>
<g id="Layer_9">
</g>
</svg>
