<?xml version="1.0" encoding="utf-8"?>
<!-- Generator: Adobe Illustrator 21.0.2, SVG Export Plug-In . SVG Version: 6.00 Build 0)  -->
<svg version="1.1" id="Layer_1" xmlns="https://www.w3.org/2000/svg" xmlns:xlink="https://www.w3.org/1999/xlink" x="0px" y="0px"
	 viewBox="0 0 200 200" style="enable-background:new 0 0 200 200;" xml:space="preserve">
<style type="text/css">
	.st0{fill:#1A1A1A;}
</style>
<g>
	<path class="st0" d="M198.9,46.5h-0.6c0,0-0.1,0-0.1,0H3.6c0,0-0.1,0-0.1,0H3.1c-0.7,0-1.3,0.6-1.3,1.3v108.9
		c0,0.7,0.6,1.3,1.3,1.3h5c0.7,0,1.3-0.6,1.3-1.3V54.1h183.3v102.6c0,0.7,0.6,1.3,1.3,1.3h5c0.7,0,1.3-0.6,1.3-1.3V47.8
		C200.2,47.1,199.6,46.5,198.9,46.5"/>
	<path class="st0" d="M17.4,123.5L17.4,123.5c-0.2,4.2,0.1,7.7,0.5,11.7l0.2,2c0,0.1,0,0.2,0,0.4c0,0.1,0.1,0.3,0.3,0.3
		c0.9,0.3,1.5,0.1,2.1-0.2c0,0,1-0.3,1.6-1.7c1.3-2.7,4.2-14.9,16.3-14.3c14.2,0.7,15.9,14.5,16.5,18.1c0.7,3.6,3.9,4,3.9,4l1.4,0
		H110h13.6l2.2-0.1c5.1-0.2,5.5-1.9,7.4-4.1c1.9-2.2,3.3-15.9,17.1-16.3c15.1-0.4,18.3,15.2,19.2,16c0.3,0.2,2.2,0.3,3.4,0.4
		c0.9,0.1,1.4,0,1.4,0c2.2,0,4.1-0.2,6.6-1.7c0.1,0,0.1-0.1,0.2-0.1v0c0.1,0,0.1-0.1,0.2-0.1l2.1-1.8l1.8-1.7c0.5-0.4,0.8-1,0.9-1.6
		c0.2-0.9,0.1-1.7-0.2-2.9c-0.1-0.4-0.5-0.7-0.9-0.7h-1.9c-0.6-4.2-1.9-7.8-4.1-11.7c-0.2-0.3-0.3-0.5-0.5-0.8
		c-2-1.8-3.4-3.2-3.4-3.2c-2.4-2.4-24.3-25.9-27.1-29.9c-0.7-1.1-1.7-1.9-2.9-2.4c-6.3-3-15.3-4.5-33.3-5.1c0,0,0,0,0,0
		c-0.4,0-0.8,0-1.1,0c-0.1,0-0.1,0-0.2,0c-0.3,0-0.7,0-1.1,0h-0.2c-0.4,0-0.7,0-1.1,0c0,0-0.1,0-0.1,0c-0.8,0-1.7,0-2.6-0.1
		c0,0-0.1,0-0.1,0c-0.4,0-0.8,0-1.2,0c-0.1,0-0.2,0-0.3,0c-0.3,0-0.6,0-1,0c-0.2,0-0.3,0-0.4,0c-0.3,0-0.6,0-0.9,0
		c-0.1,0-0.3,0-0.4,0c-0.3,0-0.7,0-1,0c-0.1,0-0.3,0-0.4,0c-0.5,0-0.9,0-1.4,0c-0.3,0-1.7,0-2,0.1c-7.1,0.6-16.3,1.8-19.7,3.9
		c-0.4,0.2-0.8,0.4-2,1.1c-0.5,0.3-1.3,0.8-1.6,1c-0.1,0.1-0.3,0.3-0.5,0.3c-0.4,0.5-0.8,0.9-1.2,1.4c-0.3,0.4-0.6,0.8-1,1.1
		c-0.2,0.2-0.3,0.4-0.5,0.6c-0.2,0.3-0.4,0.5-0.7,0.8c-0.1,0.1-0.1,0.2-0.2,0.3L57,99.7c-0.7,0.6-1.3,1.3-1.9,1.8
		c-18.4,1-30,4.1-33.1,11.5l-3.2,1.6c-0.2,0.1-0.4,0.3-0.4,0.3S17.6,114.9,17.4,123.5"/>
	<path class="st0" d="M151.2,126.9c-8.5,0-15.4,6.9-15.4,15.4c0,8.5,6.9,15.4,15.4,15.4c8.5,0,15.4-6.9,15.4-15.4
		C166.6,133.8,159.7,126.9,151.2,126.9"/>
	<path class="st0" d="M37.8,126.6c-8.5,0-15.4,6.9-15.4,15.4s6.9,15.4,15.4,15.4c8.5,0,15.4-6.9,15.4-15.4S46.3,126.6,37.8,126.6"/>
</g>
</svg>
