<?xml version="1.0" encoding="utf-8"?>
<!-- Generator: Adobe Illustrator 21.0.2, SVG Export Plug-In . SVG Version: 6.00 Build 0)  -->
<svg version="1.1" id="Layer_1" xmlns="https://www.w3.org/2000/svg" xmlns:xlink="https://www.w3.org/1999/xlink" x="0px" y="0px"
	 viewBox="0 0 200 200" style="enable-background:new 0 0 200 200;" xml:space="preserve">
<style type="text/css">
	.st0{fill:#1A1A1A;}
</style>
<g>
	<g>
		<path class="st0" d="M100.4,186.9c-48.2,0-87.3-39.2-87.3-87.3s39.2-87.3,87.3-87.3c48.1,0,87.3,39.2,87.3,87.3
			S148.6,186.9,100.4,186.9 M100.4,2C46.6,2,2.8,45.8,2.8,99.6s43.8,97.6,97.6,97.6c53.8,0,97.6-43.8,97.6-97.6S154.2,2,100.4,2"/>
	</g>
	<polygon class="st0" points="126.3,102.7 126.4,120 106,99.8 126.1,79.9 126,97.3 136.5,86.9 136.6,62.3 112.1,62.2 101.6,72.5 
		118.9,72.6 98.7,92.6 78.4,72.6 95.8,72.5 85.3,62.2 60.7,62.3 60.8,86.9 71.3,97.3 71.2,79.9 91.4,99.8 70.9,120 71,102.7 
		60.5,113.1 60.4,137.7 85,137.8 95.5,127.4 78.1,127.3 98.7,107.1 119.2,127.3 101.9,127.4 112.4,137.8 137,137.7 136.8,113.1 	"/>
</g>
</svg>
